Patient4_TMGait_0pt4_02_right_23_GRF.mot
version=1
nRows=45
nColumns=19
inDegrees=no
endheader
time	F1x	F1y	F1z	M1x	M1y	M1z	F2x	F2y	F2z	M2x	M2y	M2z	EC1x	EC1y	EC1z	EC2x	EC2y	EC2z
30.16	-50.82	747.7553	77.9148	-250.9542	-98.4799	854.7265	-15.0641	-0.60206	5.9013	-0.6773	-1.2736	3.5925	-0.0592	0.0182	-0.0073	-0.0462	0.0165	0.9585
30.1735	-37.3938	737.8774	74.9519	-247.3281	-92.1966	846.5557	-10.2703	0.41288	3.8759	-0.16501	-0.69537	3.4355	-0.0592	0.0182	-0.0073	-0.0462	0.0165	0.9585
30.187	-25.287	728.4442	72.0217	-243.9314	-86.0596	837.449	-6.2464	1.2512	2.1728	0.27004	-0.2064	3.3024	-0.0592	0.0182	-0.0073	-0.0462	0.0165	0.9585
30.2005	-15.1867	720.8487	69.352	-241.2573	-80.4668	828.8361	-3.2058	1.881	0.88361	0.60546	0.16643	3.2109	-0.0592	0.0182	-0.0073	-0.0462	0.0165	0.9585
30.214	-7.2156	716.1931	67.0882	-239.68	-75.6327	822.1132	-1.1354	2.3183	-0.00043076	0.84426	0.4281	3.172	-0.0592	0.0182	-0.0073	-0.0462	0.0165	0.9585
30.2275	-1.165	715.0821	65.2834	-239.393	-71.6096	818.2365	0.11155	2.5933	-0.5479	0.99894	0.60363	3.1718	-0.0592	0.0182	-0.0073	-0.0462	0.0165	0.9585
30.241	3.319	717.5602	63.9448	-240.3899	-68.3617	817.5566	0.72793	2.7198	-0.84225	1.0784	0.72045	3.1556	-0.0592	0.0182	-0.0073	-0.0462	0.0165	0.9585
30.2545	6.644	723.1821	63.0262	-242.4935	-65.7817	819.8429	0.88604	2.702	-0.96757	1.0879	0.81199	3.0677	-0.0592	0.0182	-0.0073	-0.0462	0.0165	0.9585
30.268	9.2002	731.1536	62.4854	-245.4079	-63.7585	824.4232	0.7605	2.5156	-0.99645	1.0225	0.90039	2.8233	-0.0592	0.0182	-0.0073	-0.0462	0.0165	0.9585
30.2815	11.2953	740.5179	62.2521	-248.7857	-62.167	830.3879	0.46404	2.1168	-0.98239	0.86834	1.0049	2.3402	-0.0592	0.0182	-0.0073	-0.0462	0.0165	0.9585
30.295	13.1486	750.2959	62.2732	-252.2789	-60.9103	836.7479	0.084069	1.4246	-0.96568	0.60106	1.1384	1.5045	-0.0592	0.0182	-0.0073	-0.0462	0.0165	0.9585
30.3085	14.9411	759.6089	62.4697	-255.5811	-59.8699	842.5854	-0.29917	0.37833	-0.96612	0.20038	1.2907	0.23345	-0.0592	0.0182	-0.0073	-0.0462	0.0165	0.9585
30.322	16.8344	767.7141	62.7651	-258.4379	-58.9266	847.0906	-0.61382	-1.0538	-0.9861	-0.34544	1.4321	-1.5218	-0.0592	0.0182	-0.0073	-0.0462	0.0165	0.9585
30.3355	18.9584	774.0099	63.0767	-260.6497	-57.9619	849.5879	-0.77003	-2.8643	-1.001	-1.0317	1.4971	-3.7648	-0.0592	0.0182	-0.0073	-0.0462	0.0165	0.9585
30.349	21.406	778.0015	63.345	-262.053	-56.8909	849.5209	-0.66646	-4.9131	-0.97385	-1.8054	1.4001	-6.32	-0.0592	0.0182	-0.0073	-0.0462	0.0165	0.9585
30.3625	24.2275	779.2541	63.5463	-262.4985	-55.6814	846.4279	-0.15428	-6.8848	-0.84903	-2.5447	1.0184	-8.7945	-0.0592	0.0182	-0.0073	-0.0462	0.0165	0.9585
30.376	27.4156	777.4322	63.6836	-261.8634	-54.3478	840.0078	0.91815	-8.2107	-0.557	-3.0317	0.21183	-10.4645	-0.0592	0.0182	-0.0073	-0.0462	0.0165	0.9585
30.3895	30.9294	772.3836	63.7941	-260.0816	-52.9475	830.1858	2.708	-7.995	-0.013962	-2.9243	-1.1704	-10.1959	-0.0592	0.0182	-0.0073	-0.0462	0.0165	0.9585
30.403	34.686	764.2168	63.925	-257.1698	-51.5604	817.1942	5.3421	-4.9654	0.856	-1.7389	-3.2535	-6.3939	-0.0592	0.0182	-0.0073	-0.0462	0.0165	0.9585
30.4165	38.5554	753.233	64.1261	-253.2063	-50.2806	801.4915	8.8229	2.5039	2.106	1.1407	-6.0883	2.9848	-0.0592	0.0182	-0.0073	-0.0462	0.0165	0.9585
30.43	42.3643	739.7586	64.3933	-248.2813	-49.1611	783.5689	12.9592	16.2588	3.7333	6.4135	-9.5801	20.2529	-0.0592	0.0182	-0.0073	-0.0462	0.0165	0.9585
30.4435	45.8708	723.9487	64.6296	-242.437	-48.1804	763.7338	17.2223	38.0978	5.6288	14.7539	-13.3803	47.6747	-0.0592	0.0182	-0.0073	-0.0462	0.0165	0.9585
30.457	48.7841	705.5815	64.6419	-235.605	-47.2345	741.8805	20.6088	69.2349	7.5178	26.6106	-16.7608	86.7705	-0.0592	0.0182	-0.0073	-0.0462	0.0165	0.9585
30.4705	50.7617	683.9638	64.1592	-227.5764	-46.16	717.3941	21.5163	109.5303	8.8826	41.9131	-18.481	137.3637	-0.0592	0.0182	-0.0073	-0.0462	0.0165	0.9585
30.484	51.4748	658.0712	62.8869	-218.0525	-44.7678	689.2698	18.3602	157.0175	8.9206	59.8621	-16.9732	197.0414	-0.0592	0.0182	-0.0073	-0.0462	0.0165	0.9585
30.4975	50.6809	626.9868	60.5664	-206.7907	-42.8772	656.5537	10.9788	207.9878	6.875	78.9798	-11.3161	261.2191	-0.0592	0.0182	-0.0073	-0.0462	0.0165	0.9585
30.511	48.3192	590.3602	57.0845	-193.7485	-40.3899	618.7895	1.0131	258.317	2.7729	97.6802	-2.2251	324.5919	-0.0592	0.0182	-0.0073	-0.0462	0.0165	0.9585
30.5245	44.6034	548.6456	52.527	-179.1561	-37.3116	576.2387	-9.6902	306.2574	-3.0792	115.2823	9.2052	384.7185	-0.0592	0.0182	-0.0073	-0.0462	0.0165	0.9585
30.538	39.9723	502.9717	47.1347	-163.4609	-33.7176	529.7914	-19.8056	352.5614	-10.0987	132.0764	21.7907	442.3273	-0.0592	0.0182	-0.0073	-0.0462	0.0165	0.9585
30.5515	34.9069	454.5791	41.2113	-147.1226	-29.7267	480.4512	-28.5102	398.3202	-17.7144	148.514	34.5124	498.688	-0.0592	0.0182	-0.0073	-0.0462	0.0165	0.9585
30.565	29.6979	404.3463	35.0697	-130.4402	-25.527	428.9286	-35.3418	443.9404	-25.2352	164.8157	46.3694	554.2378	-0.0592	0.0182	-0.0073	-0.0462	0.0165	0.9585
30.5785	24.4408	352.9381	29.0351	-113.6002	-21.3866	375.8179	-40.046	489.15	-32.2596	180.9361	56.7622	608.5918	-0.0592	0.0182	-0.0073	-0.0462	0.0165	0.9585
30.592	19.1408	301.1882	23.4104	-96.8133	-17.5952	321.9616	-42.5692	533.4119	-38.5582	196.7142	65.4108	661.0556	-0.0592	0.0182	-0.0073	-0.0462	0.0165	0.9585
30.6055	13.7919	250.2228	18.4525	-80.3749	-14.4102	268.5657	-43.1247	576.0809	-44.2878	211.9171	72.5645	710.9025	-0.0592	0.0182	-0.0073	-0.0462	0.0165	0.9585
30.619	8.4743	201.4431	14.2981	-64.682	-11.9573	217.1452	-42.1311	616.4138	-49.5893	226.2695	78.5676	757.3479	-0.0592	0.0182	-0.0073	-0.0462	0.0165	0.9585
30.6325	3.3519	156.4232	10.9763	-50.2051	-10.2362	169.4231	-40.1843	653.675	-54.6532	239.4991	83.8648	799.6769	-0.0592	0.0182	-0.0073	-0.0462	0.0165	0.9585
30.646	-1.2712	116.6259	8.403	-37.3996	-9.0916	127.0045	-37.8726	687.31	-59.4202	251.415	88.6229	837.3779	-0.0592	0.0182	-0.0073	-0.0462	0.0165	0.9585
30.6595	-5.0186	83.006	6.4336	-26.5757	-8.2739	90.9659	-35.5818	716.9482	-63.75	261.9003	92.8196	870.1223	-0.0592	0.0182	-0.0073	-0.0462	0.0165	0.9585
30.673	-7.563	55.8465	4.8809	-17.8372	-7.4959	61.6729	-33.5026	742.2543	-67.3554	270.8565	96.1985	897.58	-0.0592	0.0182	-0.0073	-0.0462	0.0165	0.9585
30.6865	-8.7168	34.8614	3.6045	-11.1001	-6.5543	38.8848	-31.6926	762.7734	-70.071	278.1321	98.5768	919.2537	-0.0592	0.0182	-0.0073	-0.0462	0.0165	0.9585
30.7	-8.4961	19.406	2.5103	-6.1562	-5.3604	21.9789	-30.124	778.0058	-71.8308	283.543	99.867	934.5806	-0.0592	0.0182	-0.0073	-0.0462	0.0165	0.9585
30.7135	-7.1975	8.7014	1.5778	-2.749	-3.9901	10.1677	-28.7335	787.5518	-72.7077	286.9325	100.1287	943.1123	-0.0592	0.0182	-0.0073	-0.0462	0.0165	0.9585
30.727	-5.4032	1.9644	0.83847	-0.61597	-2.6604	2.6567	-27.4596	791.3458	-72.8044	288.2632	99.4612	944.7912	-0.0592	0.0182	-0.0073	-0.0462	0.0165	0.9585
30.7405	-3.5885	-1.697	0.31531	0.53597	-1.5449	-1.4796	-26.229	789.8442	-72.2536	287.6869	97.9958	940.1704	-0.0592	0.0182	-0.0073	-0.0462	0.0165	0.9585
30.754	-2.0161	-3.1913	-0.023855	1.0017	-0.69259	-3.212	-24.9616	784.1002	-71.1968	285.5734	95.8791	930.5057	-0.0592	0.0182	-0.0073	-0.0462	0.0165	0.9585
